<?xml version="1.0" encoding="utf-8"?>
<!-- Generator: Adobe Illustrator 18.0.0, SVG Export Plug-In . SVG Version: 6.00 Build 0)  -->
<!DOCTYPE svg PUBLIC "-//W3C//DTD SVG 1.1//EN" "http://www.w3.org/Graphics/SVG/1.1/DTD/svg11.dtd" [
	<!ENTITY ns_extend "http://ns.adobe.com/Extensibility/1.0/">
	<!ENTITY ns_ai "http://ns.adobe.com/AdobeIllustrator/10.0/">
	<!ENTITY ns_graphs "http://ns.adobe.com/Graphs/1.0/">
	<!ENTITY ns_vars "http://ns.adobe.com/Variables/1.0/">
	<!ENTITY ns_imrep "http://ns.adobe.com/ImageReplacement/1.0/">
	<!ENTITY ns_sfw "http://ns.adobe.com/SaveForWeb/1.0/">
	<!ENTITY ns_custom "http://ns.adobe.com/GenericCustomNamespace/1.0/">
	<!ENTITY ns_adobe_xpath "http://ns.adobe.com/XPath/1.0/">
]>
<svg version="1.1" xmlns:x="&ns_extend;" xmlns:i="&ns_ai;" xmlns:graph="&ns_graphs;"
	 xmlns="http://www.w3.org/2000/svg" xmlns:xlink="http://www.w3.org/1999/xlink" x="0px" y="0px" width="305px" height="274.3px"
	 viewBox="-33.3 -32.8 305 274.3" enable-background="new -33.3 -32.8 305 274.3" xml:space="preserve">
<metadata>
	<sfw  xmlns="&ns_sfw;">
		<slices></slices>
		<sliceSourceBounds  width="308.1" height="349.9" y="317.1" x="770.9" bottomLeftOrigin="true"></sliceSourceBounds>
	</sfw>
</metadata>
<g id="Calque_1">
	<circle fill="#BDE880" cx="119.5" cy="119.5" r="119.5"/>
</g>
<g id="Calque_4">
	<defs>
		<filter id="Adobe_OpacityMaskFilter" filterUnits="userSpaceOnUse" x="-69.1" y="-7" width="307.7" height="349.9">
			<feColorMatrix  type="matrix" values="1 0 0 0 0  0 1 0 0 0  0 0 1 0 0  0 0 0 1 0"/>
		</filter>
	</defs>
	<mask maskUnits="userSpaceOnUse" x="-69.1" y="-7" width="307.7" height="349.9" id="mask0_348_649_1_">
		<path fill="#FFFFFF" filter="url(#Adobe_OpacityMaskFilter)" d="M238.6,120.6c0,65.4-53.5,118.5-119.5,118.5
			c-66,0-119.5-53-119.5-118.5c0-65.4,53.5-138.3,119.5-138.3C185.1-17.6,238.6,55.2,238.6,120.6z"/>
	</mask>
	<g mask="url(#mask0_348_649_1_)">
		<path fill="#FFFFFF" d="M155.1,69.6c20.7-23.6,10-47.1-3.2-51.8c-0.8-0.3,5.4-4.3,4.6-5.9c-0.5-1-6.8-0.4-8.9,0
			c-0.1,0-0.2-0.1-0.2-0.2c0.4-2.2,1.5-8.1,1.2-8.8c-0.2-0.5-5.3,7.8-5.5,7.4c-12.9-22-42.9-19.9-58.1-2.2c-8,9.3-12.7,14.6-19,19.5
			c9.8,11.4,36.8,17.7,59.5,8.5c0.2,12.5,10,27.4,15.3,28.9L155.1,69.6L155.1,69.6z"/>
		<path fill="#FFFFFF" d="M78.9,36.6c-0.1,0.1-2.3,4.1-2.3,6.5c0,2.4-1.1,16.2-1.1,21.4c0,5.2,0.1,15.1,1,21.6
			c0.9,6.5,2.5,10.7,5.2,14.3c2.7,3.6,5.2,7.7,9.8,9.1c4.6,1.4,11.6,4,11.6,4s0.4,9.8-0.2,15.2c-0.6,5.4-0.3-3.5-0.3-3.5l10,15
			l31.2-17.4l2.6-5c0,0-1-9.1-1.3-13c-0.3-3.9-1.2-18.6,0.8-20.7c4.3-1,8.8-5.5,8.8-9.2c0-3.7-2.4-7.1-3.8-8.7
			c-1.4-1.6-8-3.6-11.5-1.7c-4.6-4.1-8.4-9.9-10.4-14c-2-4.1-4.4-12.3-3.9-15.1c-8.5,4.6-18.7,6-27.1,5.4
			c-8.4-0.5-13.5-2.6-13.5-2.6L78.9,36.6L78.9,36.6z"/>
		<path fill="#1E481D" d="M109.8,101.1c3.8-1.6,5.6-4,6-7.2c0.3-2.4,0.1-3.6-1-3.9c-1.4-0.4-4.2,1.3-8.6,3.3c-3.2,1.5-8.2,2.4-8,5
			C98.3,100.5,103.7,103.7,109.8,101.1L109.8,101.1z"/>
		<path fill="#FFFFFF" d="M115.3,95.3c-3-1.6-9.9-0.3-9.3,6.2C110.3,101.1,114.8,97.1,115.3,95.3z"/>
		<path fill="#1E481D" d="M105.2,102.9c-2.9,0-4.9-1-5.7-1.5c-1.6-0.9-2.6-2.2-2.7-3.4c-0.3-2.9,3.1-4.1,6.1-5.2
			c0.9-0.3,1.8-0.7,2.6-1c1-0.5,2-0.9,2.8-1.4c3.2-1.6,5.1-2.5,6.7-2c2.5,0.8,2.1,3.9,1.9,5.3c-0.5,3.8-2.8,6.5-6.8,8.2
			C108.3,102.6,106.6,102.9,105.2,102.9L105.2,102.9z M114.1,90.7c-0.8,0-2.8,1-4.7,1.9c-0.9,0.4-1.8,0.9-2.9,1.4
			c-0.9,0.4-1.8,0.8-2.8,1.1c-1.9,0.7-4.6,1.7-4.5,2.7c0,0.3,0.5,0.9,1.5,1.6c1.8,1.1,5,1.7,8.4,0.3c3.2-1.3,4.9-3.3,5.3-6.2
			c0.2-1.6,0.1-2.5-0.2-2.6C114.2,90.7,114.2,90.7,114.1,90.7L114.1,90.7z"/>
		<path fill="#1E481D" d="M104.6,102c-0.8-3.1,0.1-5.8,2.6-7.5c2.6-1.8,6.4-1.9,8.8-0.3l-1.4,2c-1.5-1.1-4.2-0.9-6,0.3
			c-1.1,0.8-2.3,2.2-1.6,4.8L104.6,102L104.6,102z"/>
		<path fill="#1E481D" d="M104.1,114.2c-5,0-9.6-1.2-13.8-3.7c-8.3-4.9-14-14.8-15.2-26.4c-1.1-10-0.8-26.8-0.2-35
			c0.3-4.7,0.8-9.3,1.9-13.4c0.2-0.7,0.9-1.1,1.6-0.9c0.7,0.2,1.1,0.9,0.9,1.5c-1.1,3.9-1.5,8.3-1.8,12.9
			c-0.6,8.1-0.9,24.7,0.2,34.6c1.2,10.8,6.4,20,14,24.5c7.1,4.2,16,4.4,25.8,0.5c0.6-0.3,1.4,0.1,1.6,0.7c0.3,0.6,0,1.4-0.7,1.6
			C113.4,113.2,108.6,114.2,104.1,114.2z"/>
		<path fill="#1E481D" d="M144.9,85.3c-1.6,0-3.2-0.3-4.6-1c-0.6-0.3-0.9-1-0.6-1.6c0.3-0.6,1-0.9,1.6-0.6c1.2,0.5,2.5,0.8,3.8,0.8
			c2.4,0,4.6-1,6.2-2.7c1.6-1.7,2.5-3.9,2.5-6.3s-1-4.6-2.8-6.2c-1.7-1.6-4-2.5-6.4-2.4c-1.2,0-2.4,0.3-3.5,0.8
			c-0.6,0.3-1.4,0-1.6-0.6c-0.3-0.6,0-1.3,0.6-1.6c1.4-0.6,2.9-1,4.5-1c3.1-0.1,5.9,1,8.1,3.1c2.2,2.1,3.5,4.9,3.5,7.9
			c0.1,3-1.1,5.9-3.2,8c-2.1,2.2-4.9,3.4-8,3.5C145.1,85.3,145,85.3,144.9,85.3L144.9,85.3z"/>
		<path fill="#1E481D" d="M150,74.8c-0.7,0-1.2-0.5-1.2-1.2c0-0.9-0.2-2.1-1.1-2.9c-0.8-0.7-2.1-1-3.7-0.8c-0.7,0.1-1.3-0.4-1.4-1.1
			c-0.1-0.7,0.4-1.3,1.1-1.4c2.3-0.3,4.3,0.2,5.6,1.4c1.3,1.1,1.9,2.7,2,4.7C151.2,74.2,150.7,74.8,150,74.8
			C150,74.8,150,74.8,150,74.8L150,74.8z"/>
		<path fill="#1E481D" d="M84.5,67.3c0,2.1-0.9,3.9-2.2,3.9c-1.3,0-2.3-1.7-2.3-3.8c-0.1-2.1,0.9-3.9,2.2-3.9
			C83.4,63.5,84.5,65.2,84.5,67.3z"/>
		<path fill="#1E481D" d="M112.3,66.7c0.1,2.1,1.1,3.8,2.4,3.8c1.3,0,2.2-1.8,2.2-3.9c-0.1-2.1-1.1-3.8-2.4-3.8
			S112.2,64.6,112.3,66.7z"/>
		<path fill="#1E481D" d="M124.3,57c-0.3,0-0.6-0.1-0.8-0.3c-4.1-3.5-10.9-4.4-16.2-2.1c-0.6,0.3-1.4,0-1.6-0.7
			c-0.3-0.6,0-1.4,0.7-1.6c6.3-2.6,14-1.6,18.9,2.5c0.5,0.4,0.6,1.2,0.1,1.8C125,56.9,124.7,57,124.3,57z"/>
		<path fill="#1E481D" d="M94,84.8c-1.8,0-3.2-0.4-4.1-1.3c-0.9-0.8-1.4-2-1.5-3.4c-0.1-2.3,1.7-4.1,3.3-5.6
			c0.4-0.4,0.8-0.8,1.1-1.1c1.8-2,2.6-4.9,2.5-8.9c-0.2-5.7-2.5-8.9-7.4-9.9c-4.1-0.8-10.3,0-13.8,3.1c-0.5,0.5-1.3,0.4-1.8-0.1
			s-0.4-1.3,0.1-1.8c4.1-3.7,11.2-4.7,16-3.7c6.1,1.2,9.3,5.4,9.4,12.2c0.1,4.7-0.9,8.2-3.1,10.6c-0.4,0.4-0.8,0.8-1.2,1.2
			c-1.3,1.3-2.6,2.6-2.5,3.8c0,0.8,0.2,1.3,0.6,1.6c0.4,0.4,1.4,0.8,3.3,0.6c0.7-0.1,1.3,0.4,1.4,1.1c0.1,0.7-0.4,1.3-1.1,1.4
			C94.7,84.7,94.4,84.8,94,84.8L94,84.8z"/>
		<path fill="#1E481D" d="M102.8,127.6c0.5,0.6,1,1.4,1.4,2.2c0.3,0.1,0.6,0.3,0.8,0.6c0.7-4.8,0.7-10.7,0-17.6
			c-0.1-0.7-0.7-1.2-1.4-1.1c-0.7,0.1-1.2,0.7-1.1,1.4C103.1,118.7,103.2,123.5,102.8,127.6z"/>
		<path fill="#1E481D" d="M149.4,131.3c-0.6,0-1.1-0.4-1.2-1c-3.9-16.8-5.5-35.1-4.1-46.5c0.1-0.7,0.7-1.2,1.4-1.1
			c0.7,0.1,1.2,0.7,1.1,1.4c-1.4,11.1,0.2,29,4.1,45.6c0.2,0.7-0.3,1.3-0.9,1.5C149.6,131.3,149.5,131.3,149.4,131.3L149.4,131.3z"
			/>
		<path fill="#1E481D" d="M155.1,70.8c-0.3,0-0.6-0.1-0.8-0.3c-0.5-0.5-0.6-1.2-0.1-1.8c12.9-14.7,12-27.6,10.4-34
			c-2-7.6-7-13.7-13.1-15.8c-0.4-0.2-0.8-0.5-0.9-1c-0.2-0.9,0.4-1.4,1.9-2.7c0.7-0.6,2-1.8,2.6-2.6c-1.5-0.2-5,0.1-7.3,0.5
			c-0.5,0.1-0.9-0.1-1.3-0.4c-0.3-0.3-0.5-0.8-0.4-1.3c0.3-1.5,0.5-2.9,0.7-4.1c-2.6,3.9-2.9,4.3-3.8,4.2l-0.7,0l-0.4-0.6
			c-5.2-8.9-13.7-14.3-24-15.2c-11.9-1.1-24.2,4-32.1,13.2C78,17.9,73.5,23,67.7,27.6c10.2,10.5,35.5,15.9,57.2,7.2l1.7-0.7l0,1.8
			c0.2,12.3,10,26.5,14.4,27.7c0.7,0.2,1.1,0.9,0.9,1.5c-0.2,0.7-0.9,1.1-1.5,0.9c-5.7-1.6-15.1-15.5-16.2-28.3
			c-23,8.5-49.5,2-59.3-9.4l-0.9-1l1-0.8c6.1-4.8,10.7-9.8,18.9-19.3C92.4-2.6,105.5-8,118.1-6.8c10.5,0.9,19.4,6.2,25.1,14.9
			c0.5-0.7,1.1-1.6,1.6-2.4c2.6-3.8,2.9-4.3,3.8-4.2l0.8,0.1l0.3,0.7c0.1,0.3,0.4,1-0.9,8c1.1-0.1,2.5-0.3,3.7-0.3
			c3.2-0.1,4.6,0.2,5,1.3c0.9,1.8-1.3,3.8-3.5,5.7c-0.1,0.1-0.2,0.1-0.2,0.2c6.1,2.9,11,9.2,13,16.9c1.8,6.8,2.8,20.7-10.9,36.3
			C155.8,70.7,155.4,70.8,155.1,70.8z"/>
		<path fill="#E6AE4A" d="M-22.8,158.3L-68,172.8c0,0,18,46.5,21.8,57c3.8,10.5,19.3,35.5,25.9,43.4c8,9.6,19.8,11.9,30.3,9.9
			c10.5-2,19.1-11.1,24.1-14.1c5-3,16-16.1,16-16.1l-1.3,88.2l183,0.6l1.8-1.2c0,0,3.6-55.7,3.6-60.1c0-4.4,0.2-13-0.9-16.6
			c-1.2-3.6-9.3-47.6-10.3-51.8c-1.1-4.2-10.9-38.3-15-46.2c-4.1-7.9-17.7-24.3-21.7-28.8c-4-4.5-27.7-15.3-27.7-15.3l-12.4-3.2
			L102.4,233l-1.5-108.4c0,0-26,7.5-32.4,14c-6.4,6.5-22,19.6-27.5,28.5c-5.5,8.8-36.3,51.1-36.3,51.1L-22.8,158.3L-22.8,158.3z"/>
		<path fill="#FFFFFF" d="M2.2,223c0.5,1.1,2.1,3.6,4.2,0.7c6.9-9.4,31.8-46.2,37.3-53.4c8.4-11,19.8-23.6,27.5-28.5
			c8.8-5.5,17.3-10.2,29.7-13.2l-0.1-4.3c0,0-26,7.5-32.4,14c-6.4,6.5-22,19.6-27.5,28.5c-5,8-32,45.4-36.7,51.8l-28-59.9l-2.2,0.9
			C-25.9,159.6-4.8,207.2,2.2,223L2.2,223z"/>
		<path fill="#FFFFFF" d="M55.1,247.9c0.6-23,0.5-65.9-1.7-63.4L48.9,341h4.6C53.4,341,54.5,270.2,55.1,247.9z"/>
		<path fill="#1E481D" d="M47.9,342.4C47.9,342.4,47.8,342.4,47.9,342.4c-0.7,0-1.3-0.6-1.3-1.3c0-1.3,4.1-135.2,5.6-156.6
			c0-0.7,0.7-1.2,1.3-1.2c0.7,0.1,1.2,0.6,1.2,1.3c-1.5,21.4-5.5,155.1-5.6,156.5C49.1,341.8,48.6,342.3,47.9,342.4L47.9,342.4z"/>
		<path fill="#1E481D" d="M234.3,342.9c0,0-0.1,0-0.1,0c-0.7-0.1-1.2-0.7-1.2-1.3c0-0.4,3.1-39,3-65.6c-0.1-17.7-10.3-64-18.6-89.4
			l-0.1-0.5c-7.1-21.7-17.9-54.6-68.2-66.7c-0.7-0.2-1.1-0.8-0.9-1.5c0.2-0.7,0.8-1.1,1.5-0.9c51.7,12.4,62.8,46.1,70,68.4l0.1,0.5
			c8.4,25.6,18.7,72.2,18.7,90.2c0.1,26.7-3,65.4-3,65.8C235.5,342.4,235,342.9,234.3,342.9L234.3,342.9z"/>
		<path fill="#1E481D" d="M2.8,285.2c-1.3,0-2.6-0.1-3.9-0.2c-14.7-1.5-27.7-15.4-39.9-42.4c-13.5-29.8-27.5-68.9-27.6-69.3
			l-0.4-1.2l47-15.3l26.6,59.3c22.7-32.9,36.7-52.9,50.1-66.6c13.4-13.7,26.1-20.9,46.9-26.8l1.6-0.4l0.5,105.5l44.6-110
			c0.3-0.6,1-1,1.6-0.7c0.7,0.3,1,1,0.7,1.6l-46.4,114.2c-0.3,0.7-1.1,1.1-1.8,1c-0.8-0.2-1.3-0.8-1.3-1.6l-0.5-106.7
			c-38,11-49.4,27.4-95.3,93.8l-1.3,1.8l-27.5-61.4l-42.4,13.8c2.5,6.8,15,41.2,27.1,67.9c11.8,26.1,24.2,39.5,37.9,40.9
			c17,1.7,33.4-8.7,50.3-31.9c0.4-0.6,1.2-0.7,1.8-0.3c0.6,0.4,0.7,1.2,0.3,1.7C35.3,274.3,19.3,285.2,2.8,285.2L2.8,285.2z
			 M103.7,232.3L103.7,232.3C103.7,232.3,103.7,232.3,103.7,232.3z"/>
		<path fill="#1E481D" d="M102,236.6l-22.2-57.3l8.5-12.1l-9.3-3.6l-1.9-30.5c0-0.7,0.5-1.3,1.2-1.3c0.7,0,1.3,0.5,1.3,1.2l1.8,28.9
			l10.7,4.2l-9.6,13.6l20.1,51.9l38.4-48.5l-3.4-16.3l16.9-1.5l14.5-38.9c0.2-0.6,1-1,1.6-0.7c0.6,0.2,1,1,0.8,1.6l-15,40.4
			l-15.7,1.4l3.1,14.7L102,236.6L102,236.6z"/>
		<path fill="#1E481D" d="M102.3,151.5c-0.3,0-0.7-0.1-0.9-0.4c-0.5-0.5-0.4-1.3,0.1-1.8l9.7-8.7l-10.4-16.1
			c-0.4-0.6-0.2-1.3,0.4-1.7c0.6-0.4,1.4-0.2,1.7,0.4l10.9,16.9c0.4,0.6,0.3,1.3-0.2,1.7l-10.5,9.3
			C102.9,151.4,102.6,151.5,102.3,151.5L102.3,151.5z M112,140C112,140,112,140,112,140L112,140L112,140z"/>
		<path fill="#1E481D" d="M131.9,158.9c-0.3,0-0.6-0.1-0.8-0.3l-19-16.7c-0.3-0.3-0.5-0.7-0.4-1.1c0-0.4,0.3-0.8,0.6-1l36.1-21.6
			c0.6-0.4,1.4-0.2,1.7,0.4c0.4,0.6,0.2,1.4-0.4,1.7l-34.7,20.8l17.8,15.7c0.5,0.5,0.6,1.2,0.1,1.8
			C132.6,158.8,132.2,158.9,131.9,158.9L131.9,158.9z"/>
		<path fill="#1E481D" d="M100.3,342L100.3,342c-0.7,0-1.3-0.6-1.3-1.3l2-106.6c0-0.7,0.6-1.3,1.3-1.2c0.7,0,1.3,0.6,1.2,1.3
			l-2.1,106.6C101.6,341.5,101,342,100.3,342z"/>
		<path fill="#1E481D" d="M104.1,149l3.6,12.1l10.1,0.5l5.3-11.3l-9.8-8.6L104.1,149z"/>
		<path fill="#1E481D" d="M107.7,161l-5.8,21.5l1,47.3h1.3c0,0,17.4-40.7,16.9-41.6c0,0-3.3-26.6-3.3-26.6l-4.2-2.7L107.7,161
			L107.7,161z"/>
		<path fill="#FFFFFF" d="M167.3,224.6c0,0,3.9,6.5,6.8,17.4c1.2,4.6,11.8,44.1,11.8,44.1v55.2l-3.3-0.7l-0.7-54L167.3,224.6
			L167.3,224.6z"/>
		<path fill="#1E481D" d="M181.8,342.9c-0.7,0-1.3-0.6-1.3-1.2v-54.9l-15.4-61.9c-0.2-0.7,0.2-1.3,0.9-1.5c0.7-0.2,1.4,0.2,1.5,0.9
			l15.5,62.2v55.2C183.1,342.4,182.5,342.9,181.8,342.9z"/>
	</g>
</g>
</svg>
